<?xml version="1.0" standalone="no"?>
<!DOCTYPE svg PUBLIC "-//W3C//DTD SVG 20010904//EN"
 "http://www.w3.org/TR/2001/REC-SVG-20010904/DTD/svg10.dtd">
<svg version="1.0" xmlns="http://www.w3.org/2000/svg"
 width="512.000000pt" height="512.000000pt" viewBox="0 0 512.000000 512.000000"
 preserveAspectRatio="xMidYMid meet">

<g transform="translate(0.000000,512.000000) scale(0.100000,-0.100000)"
fill="#000000" stroke="none">
<path d="M1745 4344 c-16 -8 -144 -128 -282 -267 l-253 -251 -37 34 c-21 19
-74 69 -118 112 -60 56 -90 78 -117 83 -105 20 -202 -88 -169 -187 8 -23 71
-93 194 -215 152 -151 188 -182 219 -188 76 -14 92 -2 429 332 182 180 325
330 334 350 22 45 16 110 -13 151 -41 57 -126 78 -187 46z"/>
<path d="M4142 2996 c-13 -7 -138 -127 -278 -266 l-254 -254 -102 101 c-110
107 -148 133 -199 133 -73 0 -149 -78 -149 -152 0 -53 43 -109 217 -280 171
-168 188 -179 271 -163 32 6 81 50 360 328 178 177 330 335 339 351 10 20 14
47 11 83 -5 57 -28 92 -80 119 -33 17 -105 18 -136 0z"/>
<path d="M1360 1922 l0 -638 -75 -74 -75 -74 -72 70 c-158 152 -160 154 -229
154 -59 0 -63 -2 -105 -44 -43 -42 -44 -45 -44 -107 l0 -63 193 -193 193 -193
62 0 c59 0 65 2 107 41 l45 42 0 -422 0 -421 88 0 c175 1 211 43 212 245 l1
120 87 42 c48 23 111 60 141 82 49 37 57 40 75 28 92 -60 259 -149 288 -153
24 -4 50 0 80 14 40 17 52 31 100 113 145 248 155 275 122 345 -19 40 -57 68
-199 148 l-100 56 0 143 c0 78 -4 153 -8 167 -7 24 1 30 225 149 128 69 234
126 236 127 3 2 -285 495 -297 507 -4 4 -99 -43 -212 -104 -112 -61 -216 -117
-230 -124 -24 -13 -30 -11 -84 30 -32 24 -96 61 -141 82 l-83 38 -1 253 0 252
-150 0 -150 0 0 -638z"/>
</g>
</svg>
