<?xml version="1.0" standalone="no"?>
<!DOCTYPE svg PUBLIC "-//W3C//DTD SVG 20010904//EN"
 "http://www.w3.org/TR/2001/REC-SVG-20010904/DTD/svg10.dtd">
<svg version="1.0" xmlns="http://www.w3.org/2000/svg"
 width="500.000000pt" height="500.000000pt" viewBox="0 0 500.000000 500.000000"
 preserveAspectRatio="xMidYMid meet">

<g transform="translate(0.000000,500.000000) scale(0.100000,-0.100000)"
fill="#000000" stroke="none">
<path d="M0 2500 l0 -2500 2500 0 2500 0 0 2500 0 2500 -2500 0 -2500 0 0
-2500z m2703 1300 c330 -82 592 -294 746 -603 177 -354 152 -805 -61 -1115
-45 -65 -159 -183 -174 -180 -17 4 -264 248 -264 261 0 5 9 24 19 41 11 17 32
67 47 111 62 181 24 398 -98 560 -68 90 -170 162 -286 202 -105 37 -271 39
-377 6 -188 -59 -335 -204 -400 -394 -25 -73 -29 -99 -29 -194 1 -87 5 -124
23 -175 71 -206 235 -363 435 -415 74 -19 222 -19 298 0 63 17 144 51 191 82
l27 18 255 -255 c140 -140 255 -258 255 -261 0 -9 -100 -74 -166 -107 -191
-95 -412 -141 -618 -129 -514 30 -927 346 -1046 802 -34 127 -34 321 -1 450
49 191 170 377 317 485 74 56 201 116 296 142 67 18 109 23 218 23 74 0 152
-4 173 -8 l37 -8 0 346 0 345 33 0 c17 0 85 -13 150 -30z"/>
</g>
</svg>
